<svg width="50" height="45" viewBox="0 0 50 45" fill="none" xmlns="http://www.w3.org/2000/svg">
<path d="M38.7504 21.875C44.9636 21.875 50.0004 26.9118 50.0004 33.125C50.0004 39.3382 44.9636 44.375 38.7504 44.375C33.3982 44.375 28.9189 40.6374 27.7803 35.6299H22.2205C21.0819 40.6374 16.6027 44.375 11.2504 44.375C5.03722 44.375 0.000422728 39.3382 0.000422728 33.125C0.000422728 26.9118 5.03722 21.875 11.2504 21.875C17.0414 21.875 21.8104 26.2504 22.4318 31.8757H27.569C28.1905 26.2504 32.9595 21.875 38.7504 21.875ZM11.2504 25.625C7.10829 25.625 3.75042 28.9829 3.75042 33.125C3.75042 37.2671 7.10829 40.625 11.2504 40.625C15.3926 40.625 18.7504 37.2671 18.7504 33.125C18.7504 28.9829 15.3926 25.625 11.2504 25.625ZM38.7504 25.625C34.6083 25.625 31.2504 28.9829 31.2504 33.125C31.2504 37.2671 34.6083 40.625 38.7504 40.625C42.8926 40.625 46.2504 37.2671 46.2504 33.125C46.2504 28.9829 42.8926 25.625 38.7504 25.625ZM25.0004 15C33.4738 15 41.3257 15.8489 48.5549 17.5498C49.5629 17.787 50.1878 18.7964 49.9506 19.8044C49.7134 20.8125 48.704 21.4373 47.696 21.2002C40.7585 19.5678 33.1937 18.75 25.0004 18.75C16.8071 18.75 9.24234 19.5678 2.30487 21.2002C1.29686 21.4373 0.287443 20.8125 0.0502653 19.8044C-0.186913 18.7964 0.437968 17.787 1.44597 17.5498C8.67517 15.8489 16.5271 15 25.0004 15ZM34.2511 0C36.8082 0 39.1395 1.41734 40.3249 3.65397L40.5335 4.0828L44.2138 12.3635C44.6344 13.3098 44.2082 14.4178 43.2619 14.8384C42.3945 15.2239 41.3911 14.8979 40.906 14.1121L40.787 13.8865L37.1067 5.60582C36.6507 4.57989 35.6844 3.88555 34.5846 3.76779L34.2511 3.75H15.7498C14.6271 3.75 13.6001 4.35107 13.0459 5.30823L12.8941 5.60582L9.21382 13.8865C8.79325 14.8328 7.6852 15.259 6.73891 14.8384C5.87149 14.4529 5.4411 13.4897 5.69933 12.6029L5.78703 12.3635L9.46733 4.0828C10.5059 1.74609 12.7479 0.191295 15.2732 0.0164634L15.7498 0H34.2511Z" fill="#21978B"/>
</svg>
