<svg width="30" height="40" viewBox="0 0 30 40" fill="none" xmlns="http://www.w3.org/2000/svg">
<path d="M1.89231 0.00329746C0.820846 0.114602 0 1.05162 0 2.18321V37.8201C0 39.0271 0.935978 40 2.11154 40H27.8885C29.064 40 30 39.0271 30 37.8201V11.045H22.2346C20.6447 11.045 19.2577 9.8542 19.2577 8.27276V0.00329746H2.11154C2.03807 0.00329746 1.96374 -0.00412183 1.89231 0.00329746ZM20.7346 0.00329746V8.27276C20.7346 8.92261 21.3372 9.52858 22.2346 9.52858H30L20.7346 0.00329746ZM2.34231 16.092H5.81538V17.8099H2.34231V16.092ZM6.70385 16.092H10.1885V17.8099H6.70385V16.092ZM11.0769 16.092H14.55V17.8099H11.0769V16.092ZM19.8115 16.092H23.2962V17.8099H19.8115V16.092ZM24.1846 16.092H27.6577V17.8099H24.1846V16.092ZM6.70385 19.0657H10.1885V20.7836H6.70385V19.0657ZM11.0769 19.0657H14.55V20.7836H11.0769V19.0657ZM15.45 19.0657H18.9231V20.7836H15.45V19.0657ZM2.34231 22.0394H5.81538V23.7454H2.34231V22.0394ZM11.0769 22.0394H14.55V23.7454H11.0769V22.0394ZM19.8115 22.0394H23.2962V23.7454H19.8115V22.0394ZM24.1846 22.0394H27.6577V23.7454H24.1846V22.0394ZM6.70385 25.0012H10.1885V26.7191H6.70385V25.0012ZM15.45 25.0012H18.9231V26.7191H15.45V25.0012ZM19.8115 25.0012H23.2962V26.7191H19.8115V25.0012ZM2.34231 27.9749H5.81538V29.6928H2.34231V27.9749ZM6.70385 27.9749H10.1885V29.6928H6.70385V27.9749ZM11.0769 27.9749H14.55V29.6928H11.0769V27.9749ZM15.45 27.9749H18.9231V29.6928H15.45V27.9749ZM19.8115 27.9749H23.2962V29.6928H19.8115V27.9749ZM24.1846 27.9749H27.6577V29.6928H24.1846V27.9749ZM6.70385 30.9486H10.1885V32.6546H6.70385V30.9486ZM15.45 30.9486H18.9231V32.6546H15.45V30.9486ZM24.1846 30.9486H27.6577V32.6546H24.1846V30.9486ZM2.34231 33.9105H5.81538V35.6283H2.34231V33.9105ZM6.70385 33.9105H10.1885V35.6283H6.70385V33.9105ZM11.0769 33.9105H14.55V35.6283H11.0769V33.9105ZM19.8115 33.9105H23.2962V35.6283H19.8115V33.9105ZM24.1846 33.9105H27.6577V35.6283H24.1846V33.9105Z" fill="#21978B"/>
</svg>
