<svg width="35" height="53" viewBox="0 0 35 53" fill="none" xmlns="http://www.w3.org/2000/svg">
<g filter="url(#filter0_d_128_57)">
<path d="M14.0938 40.3317L15.7993 34.079C15.9971 33.3537 16.0958 32.9912 15.9083 32.7458C15.7206 32.5 15.3448 32.5 14.5933 32.5H9.73512C8.73792 32.5 8.2393 32.5 8.06082 32.178C7.88235 31.856 8.1466 31.4332 8.67512 30.5875L12.5346 24.4125C13.0631 23.5668 13.3273 23.144 13.1488 22.822C12.9703 22.5 12.4717 22.5 11.4745 22.5H5.4641C4.67272 22.5 4.27702 22.5 4.08995 22.2405C3.90285 21.981 4.028 21.6055 4.27825 20.8547L10.9449 0.854725C11.0824 0.4422 11.1512 0.23595 11.3148 0.117975C11.4785 -1.21072e-07 11.6959 0 12.1308 0H26.5221C27.5008 0 27.9903 2.6077e-07 28.1698 0.317075C28.3493 0.634125 28.0976 1.0538 27.5941 1.89313L22.3656 10.6069C21.8621 11.4462 21.6103 11.8659 21.7898 12.1829C21.9693 12.5 22.4588 12.5 23.4376 12.5H26.2298C27.3206 12.5 27.8661 12.5 28.0388 12.8455C28.2116 13.191 27.8843 13.6273 27.2298 14.5L22.7298 20.5C22.0753 21.3727 21.7481 21.809 21.9208 22.1545C22.0936 22.5 22.6391 22.5 23.7298 22.5H28.6503C29.7713 22.5 30.3318 22.5 30.5026 22.8525C30.6733 23.205 30.3261 23.6448 29.6316 24.5245L16.2808 41.4352C14.8031 43.3073 14.0641 44.2433 13.6083 44.0133C13.1526 43.7835 13.4663 42.6328 14.0938 40.3317Z" fill="#21978B"/>
</g>
<defs>
<filter id="filter0_d_128_57" x="0" y="0" width="34.5456" height="52.0475" filterUnits="userSpaceOnUse" color-interpolation-filters="sRGB">
<feFlood flood-opacity="0" result="BackgroundImageFix"/>
<feColorMatrix in="SourceAlpha" type="matrix" values="0 0 0 0 0 0 0 0 0 0 0 0 0 0 0 0 0 0 127 0" result="hardAlpha"/>
<feOffset dy="4"/>
<feGaussianBlur stdDeviation="2"/>
<feComposite in2="hardAlpha" operator="out"/>
<feColorMatrix type="matrix" values="0 0 0 0 0 0 0 0 0 0 0 0 0 0 0 0 0 0 0.25 0"/>
<feBlend mode="normal" in2="BackgroundImageFix" result="effect1_dropShadow_128_57"/>
<feBlend mode="normal" in="SourceGraphic" in2="effect1_dropShadow_128_57" result="shape"/>
</filter>
</defs>
</svg>
