<svg width="44" height="48" viewBox="0 0 44 48" fill="none" xmlns="http://www.w3.org/2000/svg">
<g clip-path="url(#clip0_128_97)">
<path d="M31.625 39C31.2603 39 30.9106 39.158 30.6527 39.4393C30.3949 39.7206 30.25 40.1022 30.25 40.5V45H2.75V9H8.25V10.5C8.25 10.8978 8.39486 11.2794 8.65273 11.5607C8.91059 11.842 9.26033 12 9.625 12H23.375C23.7397 12 24.0894 11.842 24.3473 11.5607C24.6051 11.2794 24.75 10.8978 24.75 10.5V9H30.25V10.5C30.25 10.8978 30.3949 11.2794 30.6527 11.5607C30.9106 11.842 31.2603 12 31.625 12C31.9897 12 32.3394 11.842 32.5973 11.5607C32.8551 11.2794 33 10.8978 33 10.5V7.5C33 7.10218 32.8551 6.72064 32.5973 6.43934C32.3394 6.15803 31.9897 6 31.625 6H24.75V4.5C24.75 3.30653 24.3154 2.16194 23.5418 1.31802C22.7682 0.474108 21.719 0 20.625 0H12.375C11.281 0 10.2318 0.474108 9.45818 1.31802C8.68459 2.16194 8.25 3.30653 8.25 4.5V6H1.375C1.01033 6 0.66059 6.15803 0.402727 6.43934C0.144865 6.72064 0 7.10218 0 7.5V46.5C0 46.8978 0.144865 47.2794 0.402727 47.5607C0.66059 47.842 1.01033 48 1.375 48H31.625C31.9897 48 32.3394 47.842 32.5973 47.5607C32.8551 47.2794 33 46.8978 33 46.5V40.5C33 40.1022 32.8551 39.7206 32.5973 39.4393C32.3394 39.158 31.9897 39 31.625 39ZM11 4.5C11 4.10218 11.1449 3.72064 11.4027 3.43934C11.6606 3.15803 12.0103 3 12.375 3H20.625C20.9897 3 21.3394 3.15803 21.5973 3.43934C21.8551 3.72064 22 4.10218 22 4.5V9H11V4.5ZM43.5985 18.438L38.0985 12.438C37.9708 12.2983 37.819 12.1875 37.652 12.1119C37.4849 12.0362 37.3059 11.9973 37.125 11.9973C36.9441 11.9973 36.765 12.0362 36.598 12.1119C36.431 12.1875 36.2792 12.2983 36.1515 12.438L19.6515 30.438C19.5239 30.5776 19.4228 30.7432 19.3539 30.9254C19.285 31.1076 19.2497 31.3029 19.25 31.5V37.5C19.25 37.8978 19.3949 38.2794 19.6527 38.5607C19.9106 38.842 20.2603 39 20.625 39H26.125C26.3057 39.0004 26.4847 38.9618 26.6517 38.8867C26.8188 38.8115 26.9706 38.7012 27.0985 38.562L43.5985 20.562C43.7265 20.4227 43.8281 20.2571 43.8975 20.0749C43.9668 19.8927 44.0025 19.6973 44.0025 19.5C44.0025 19.3027 43.9668 19.1073 43.8975 18.9251C43.8281 18.7429 43.7265 18.5773 43.5985 18.438ZM22 36V32.121L37.125 15.621L40.6807 19.5L25.5557 36H22ZM16.5 37.5C16.5 37.8978 16.3551 38.2794 16.0973 38.5607C15.8394 38.842 15.4897 39 15.125 39H9.625C9.26033 39 8.91059 38.842 8.65273 38.5607C8.39486 38.2794 8.25 37.8978 8.25 37.5C8.25 37.1022 8.39486 36.7206 8.65273 36.4393C8.91059 36.158 9.26033 36 9.625 36H15.125C15.4897 36 15.8394 36.158 16.0973 36.4393C16.3551 36.7206 16.5 37.1022 16.5 37.5ZM16.5 28.5C16.5 28.8978 16.3551 29.2794 16.0973 29.5607C15.8394 29.842 15.4897 30 15.125 30H9.625C9.26033 30 8.91059 29.842 8.65273 29.5607C8.39486 29.2794 8.25 28.8978 8.25 28.5C8.25 28.1022 8.39486 27.7206 8.65273 27.4393C8.91059 27.158 9.26033 27 9.625 27H15.125C15.4897 27 15.8394 27.158 16.0973 27.4393C16.3551 27.7206 16.5 28.1022 16.5 28.5ZM23.375 21H9.625C9.26033 21 8.91059 20.842 8.65273 20.5607C8.39486 20.2794 8.25 19.8978 8.25 19.5C8.25 19.1022 8.39486 18.7206 8.65273 18.4393C8.91059 18.158 9.26033 18 9.625 18H23.375C23.7397 18 24.0894 18.158 24.3473 18.4393C24.6051 18.7206 24.75 19.1022 24.75 19.5C24.75 19.8978 24.6051 20.2794 24.3473 20.5607C24.0894 20.842 23.7397 21 23.375 21Z" fill="#21978B"/>
</g>
<defs>
<clipPath id="clip0_128_97">
<rect width="44" height="48" fill="white"/>
</clipPath>
</defs>
</svg>
