<svg width="52" height="36" viewBox="0 0 52 36" fill="none" xmlns="http://www.w3.org/2000/svg">
<path d="M51.266 1.15739C51.266 0.573589 50.7926 0.100788 50.2094 0.100788C50.2082 0.100788 50.207 0.101389 50.2058 0.101389V0.0983887H22.679V0.106789C22.1 0.109789 21.6314 0.578389 21.6284 1.15799L21.6278 1.16219C21.6278 1.16279 21.6278 1.16399 21.6278 1.16399V4.96319C21.6272 4.98119 21.6224 4.99739 21.6224 5.01539C21.6224 5.59859 22.0952 6.07139 22.679 6.07199H50.2058C50.207 6.07199 50.2082 6.07259 50.2094 6.07259C50.7932 6.07259 51.266 5.59919 51.266 5.01599V5.01539V1.15739Z" fill="#21978B"/>
<path d="M51.266 10.0979C51.266 9.51414 50.7926 9.04134 50.2094 9.04134C50.2082 9.04134 50.207 9.04194 50.2058 9.04194V9.03894H22.679V9.04734C22.1 9.05034 21.6314 9.51894 21.6284 10.0985L21.6278 10.1027V10.1039V13.9043C21.6272 13.9223 21.6224 13.9385 21.6224 13.9565C21.6224 14.5397 22.0952 15.0125 22.679 15.0131H50.2058C50.207 15.0131 50.2082 15.0131 50.2094 15.0131C50.7932 15.0131 51.266 14.5397 51.266 13.9565V13.9559V10.0979Z" fill="#21978B"/>
<path d="M15.6488 1.15499C15.6488 0.571189 15.176 0.0983887 14.5922 0.0983887C14.5664 0.0983887 14.5418 0.104389 14.5166 0.106189H1.86621C1.84101 0.104389 1.81641 0.0983887 1.79061 0.0983887C1.20681 0.0983887 0.734009 0.571788 0.734009 1.15499V13.956C0.734009 14.5392 1.20681 15.0126 1.79061 15.0126H14.5922C15.176 15.0126 15.6488 14.5392 15.6488 13.956V1.15499Z" fill="#21978B"/>
<path d="M51.266 22.0464C51.266 21.4626 50.7926 20.9898 50.2094 20.9898C50.2082 20.9898 50.207 20.9904 50.2058 20.9904V20.9874H22.679V20.9958C22.1 20.9988 21.6314 21.4674 21.6284 22.047L21.6278 22.0512C21.6278 22.0518 21.6278 22.0518 21.6278 22.0524C21.6278 22.0524 21.6278 22.053 21.6278 22.0536V25.8528C21.6272 25.8708 21.6224 25.887 21.6224 25.905C21.6224 26.4882 22.0952 26.9616 22.679 26.9616H50.2058C50.207 26.9616 50.2082 26.9616 50.2094 26.9616C50.7932 26.9616 51.266 26.4882 51.266 25.905V22.0464Z" fill="#21978B"/>
<path d="M51.266 30.987C51.266 30.4032 50.7926 29.9304 50.2094 29.9304C50.2082 29.9304 50.207 29.931 50.2058 29.931V29.928H22.679V29.9364C22.1 29.9394 21.6314 30.408 21.6284 30.9876L21.6278 30.9918C21.6278 30.9924 21.6278 30.9936 21.6278 30.9936V34.7928C21.6272 34.8108 21.6224 34.827 21.6224 34.845C21.6224 35.4282 22.0952 35.9016 22.679 35.9016H50.2058C50.207 35.9016 50.2082 35.9016 50.2094 35.9016C50.7932 35.9016 51.266 35.4282 51.266 34.845V30.987Z" fill="#21978B"/>
<path d="M15.6488 22.044C15.6488 21.4602 15.176 20.9868 14.5922 20.9868C14.5664 20.9868 14.5418 20.9928 14.5166 20.9946H1.86621C1.84101 20.9928 1.81641 20.9868 1.79061 20.9868C1.20681 20.9868 0.734009 21.4602 0.734009 22.044V34.845C0.734009 35.4282 1.20741 35.9016 1.79061 35.9016C1.79061 35.9016 1.79061 35.9016 1.79121 35.9016H14.5922C15.176 35.9016 15.6488 35.4282 15.6488 34.845V22.044Z" fill="#21978B"/>
</svg>
