<svg width="28" height="40" viewBox="0 0 28 40" fill="none" xmlns="http://www.w3.org/2000/svg">
<path d="M24.0128 15.3851C24.7528 14.866 26.4863 13.6501 26.4863 10.7049V4.63646H27.3122C27.6901 4.63646 27.9998 4.32538 27.9998 3.94573V0.690387C27.9998 0.310738 27.69 0 27.3122 0H0.687172C0.30887 0 0 0.310738 0 0.690387V3.94573C0 4.32547 0.30887 4.63646 0.687172 4.63646H1.51363V10.8149C1.51363 13.732 2.39749 14.4149 3.96052 15.3716L10.7561 19.5319V21.3062C9.04374 22.3403 4.57321 25.0471 3.98669 25.4584C3.24667 25.9772 1.51371 27.1926 1.51371 30.1387V35.3635H0.687256C0.308954 35.3635 8.41144e-05 35.6744 8.41144e-05 36.054V39.3092C8.41144e-05 39.6888 0.308954 40 0.687256 40H27.3124C27.6903 40 28 39.6888 28 39.3092V36.054C28 35.6744 27.6902 35.3635 27.3124 35.3635H26.4865V30.0278C26.4865 27.1113 25.6021 26.4282 24.04 25.4716L17.2444 21.3114V19.5368C18.9556 18.5031 23.4262 15.7966 24.0128 15.3851ZM15.3627 23.0714L22.7522 27.5951C23.3189 27.9425 23.6218 28.134 23.7622 28.3563C23.9297 28.6238 24.0115 29.1703 24.0115 30.0277V35.3635H3.98821V30.1386C3.98821 28.4892 4.80608 27.9157 5.40295 27.4969C5.87012 27.1701 9.98145 24.6737 12.6305 23.0757C13.0032 22.8509 13.231 22.4465 13.231 22.0094V18.8332C13.231 18.4001 13.0062 17.9976 12.6374 17.7721L5.26997 13.262L5.24767 13.2481C4.68034 12.901 4.37779 12.7095 4.23791 12.4863C4.07026 12.2195 3.98812 11.6724 3.98812 10.8149V4.63654H24.0115V10.705C24.0115 12.3538 23.1936 12.9278 22.5964 13.3461C22.1296 13.6735 18.0188 16.1698 15.3696 17.7678C14.997 17.9926 14.7692 18.3971 14.7692 18.8333V22.0094C14.7693 22.4434 14.9941 22.8456 15.3627 23.0714Z" fill="#21978B"/>
<path d="M21.9558 13.0412C21.9558 13.0412 22.4011 12.6506 21.7201 12.7622C20.1061 13.0256 17.2529 14.0418 13.9707 14.0418C10.6884 14.0418 9.1735 13.1117 7.02681 13.0861C6.55812 13.0805 6.56763 13.3929 7.10567 13.711C7.64312 14.0288 12.4728 16.728 13.1375 17.1C13.8021 17.4711 14.1826 17.4424 14.8869 17.1C15.9115 16.6009 21.9558 13.0412 21.9558 13.0412Z" fill="#21978B"/>
<path d="M7.08007 33.6158C6.51215 34.1408 6.24031 34.5216 7.54598 34.5216C8.61112 34.5216 19.2723 34.5216 20.6281 34.5216C21.983 34.5216 21.4576 34.0605 20.8226 33.4526C19.5959 32.2787 17.0003 31.46 13.8866 31.46C10.625 31.46 8.34508 32.4454 7.08007 33.6158Z" fill="#21978B"/>
</svg>
