<svg width="60" height="60" viewBox="0 0 60 60" fill="none" xmlns="http://www.w3.org/2000/svg">
<path d="M18.75 16.5C18.75 22.5 23.75 27.5 30 27.5C36.25 27.5 41.25 22.5 41.25 16.5C41.25 10.5 36.25 5.5 30 5.5C23.75 5.5 18.75 10.5 18.75 16.5ZM36.25 16.5C36.25 19.75 33.5 22.5 30 22.5C26.5 22.5 23.75 19.75 23.75 16.5C23.75 13.25 26.5 10.5 30 10.5C33.5 10.5 36.25 13.25 36.25 16.5Z" fill="#21978B"/>
<path d="M16.5 42C17.5 37.75 21 35 25 35H35C37 35 39 35.75 40.75 37C41.75 38 43.5 37.75 44.25 36.75C45.25 35.75 45 34 44 33.25C41.5 31.25 38.25 30 35 30H25C18.75 30 13.25 34.25 11.5 40.75L10.25 45.5C9.49997 47.75 9.99997 50.25 11.5 52.25C13 54 15 55 17.5 55H34.75C36.25 55 37.25 54 37.25 52.5C37.25 51 36.25 50 34.75 50H17.5C16.5 50 16 49.5 15.75 49C15 48.5 14.75 47.5 15 46.75L16.5 42Z" fill="#21978B"/>
<path d="M43.25 51.75C43.75 52.25 44.25 52.5 45 52.5C45.25 52.5 45.25 52.5 45.5 52.5C46.25 52.25 47 51.75 47.25 51.25L52.25 41.25C52.75 40 52.25 38.5 51.25 38C50 37.5 48.5 38 48 39L44.5 46L42 43.5C41 42.5 39.5 42.5 38.5 43.5C37.5 44.5 37.5 46 38.5 47L43.25 51.75Z" fill="#21978B"/>
</svg>
