<svg width="60" height="48" viewBox="0 0 60 48" fill="none" xmlns="http://www.w3.org/2000/svg">
<path d="M22.9603 38.2086H17.4223L12.3635 48H60L54.9412 38.2086H49.9072L51.0179 41.6144H47.643L42.716 15.6458C42.716 15.6458 42.1256 15.8055 41.2423 16.0341L41.1813 15.7248C41.0726 15.1901 40.8717 14.7046 40.6329 14.2423C40.3925 13.7808 40.1125 13.3452 39.8227 12.9394L39.7388 12.8221L39.6334 12.7298C38.9681 12.1361 37.7644 11.1633 35.7191 9.81882L35.724 9.82213C33.5825 8.40854 31.161 7.65115 29.0507 7.60038C24.5007 7.50559 19.4733 7.40157 18.1288 7.37423L16.8566 6.54773L17.6084 5.42763L9.83988 0L0 14.7902L7.67871 20.2164L8.70949 18.6814L11.3361 20.4732L15.1211 26.1547C15.6802 26.9928 16.4418 27.6779 17.3368 28.1378L17.3459 28.1427C17.3475 28.1427 18.0202 28.482 18.9654 28.9643C19.909 29.4465 21.1235 30.0718 22.1946 30.6397L22.1963 30.6406C23.0592 31.0962 24.039 31.4919 25.0747 31.8413L25.0879 31.8454L25.7466 32.0517L27.5711 41.6144H24.0825L22.9603 38.2086ZM25.87 29.4167C24.9288 29.0991 24.0643 28.7457 23.3686 28.3774H23.3702C21.2114 27.2342 18.5321 25.8863 18.4786 25.8589C17.9763 25.6003 17.5359 25.2054 17.2198 24.7296L13.1606 18.6349L10.129 16.567L15.4364 8.66309L17.3631 9.91372L17.7204 9.92035C17.7237 9.92118 19.2139 9.95195 21.3696 9.99609C23.526 10.0409 26.346 10.0992 28.9989 10.1549C30.5327 10.179 32.6077 10.8018 34.3342 11.9558L34.3869 11.9907L34.3392 11.9591C36.1786 13.1698 37.2572 14.0312 37.8466 14.5467C37.9192 14.6498 37.9883 14.7528 38.0542 14.856L34.5648 15.1512L30.2752 16.7193L30.1113 16.8523C28.7338 17.969 27.922 19.6452 27.894 21.4246V21.5052C27.8933 23.2621 28.6564 24.93 29.9829 26.0675L30.262 26.3061L30.2966 26.311C30.4004 26.3959 30.5453 26.5155 30.7561 26.6943C31.2279 27.0942 32.0043 27.7627 33.2689 28.872C33.5012 29.0756 33.6329 29.2594 33.707 29.4116C33.7819 29.5646 33.805 29.6869 33.8059 29.8065C33.8075 30.056 33.6791 30.3653 33.353 30.6471C33.0319 30.9232 32.5429 31.1268 31.9796 31.126C31.7524 31.126 31.5136 31.0944 31.2633 31.0213L31.2049 31.0047L31.2683 31.0229C30.2902 30.7336 29.2594 30.4551 28.2516 30.1608L25.87 29.4167Z" fill="#21978B"/>
</svg>
